# xmcd CD database file
# Generated: Fri Oct 26 15:45:34 2001 by KSCD
# 
# Track frame offsets:
#       150
#       17080
#       35990
#       53132
#       66357
#       88392
#       103082
#       120640
#       133080
#       148182
#       166892
#       186642
#       201915
#       246412
#
# Disc length: 3516 seconds
#
# Revision: 2
# Processed by: cddbd v1.4PL0 Copyright (c) Steve Scherf et al.
# Submitted via: Kscd 1.3.0
#
DISCID=e20dba0e
DTITLE=Paulinho Moska - Atravez do Espelho
DYEAR=1900
DGENRE=
TTITLE0=A Seta e o alvo
TTITLE1=Virtual(mente) - Road Thang
TTITLE2=Me chama de chão
TTITLE3=Amém
TTITLE4=O Último dia
TTITLE5=Paixão e medo
TTITLE6=Blues do ano 2000
TTITLE7=Sonífera ilha
TTITLE8=Sonhos
TTITLE9=Metamorfose Ambulante
TTITLE10=Tudo que a gente quis
TTITLE11=Nada pra colher no jardim
TTITLE12=Vontade - Será que sou eu
TTITLE13=Mesmice
EXTD=
EXTT0=
EXTT1=
EXTT2=
EXTT3=
EXTT4=
EXTT5=
EXTT6=
EXTT7=
EXTT8=
EXTT9=
EXTT10=
EXTT11=
EXTT12=
EXTT13=
PLAYORDER=
